<svg xmlns="http://www.w3.org/2000/svg" data-name="Layer 1" viewBox="0 0 5 6.25" x="0px" y="0px"><title>icon_download</title><g><g><path d="M2.5,3.364a.18066.18066,0,0,1-.18066-.18066V1.74558a.18066.18066,0,0,1,.36133,0V3.1833A.18066.18066,0,0,1,2.5,3.364Z"/><g><path d="M2.5,3.43508a.18066.18066,0,0,1-.12775-.30841l.61735-.61735a.18066.18066,0,1,1,.2555.2555l-.61735.61735A.1801.1801,0,0,1,2.5,3.43508Z"/><path d="M2.5,3.43508a.1801.1801,0,0,1-.12775-.05291L1.7549,2.76482a.18066.18066,0,0,1,.2555-.2555l.61735.61735A.18066.18066,0,0,1,2.5,3.43508Z"/></g></g><path d="M2.5,4.10459a1.60014,1.60014,0,1,1,.62463-.12617A1.59475,1.59475,0,0,1,2.5,4.10459Zm0-2.84786a1.24326,1.24326,0,1,0,.87912.36414A1.23513,1.23513,0,0,0,2.5,1.25673Z"/></g><text x="0" y="20" fill="#000000" font-size="5px" font-weight="bold" font-family="'Helvetica Neue', Helvetica, Arial-Unicode, Arial, Sans-serif">Created by Alice Noir</text><text x="0" y="25" fill="#000000" font-size="5px" font-weight="bold" font-family="'Helvetica Neue', Helvetica, Arial-Unicode, Arial, Sans-serif">from the Noun Project</text></svg>